<?xml version="1.0" encoding="UTF-8"?>
<svg id="Layer_9" data-name="Layer 9" xmlns="http://www.w3.org/2000/svg" viewBox="0 0 167.38 169.4">
  <defs>
    <style>
      .cls-1, .cls-2, .cls-3 {
        stroke: #000;
        stroke-miterlimit: 10;
        stroke-width: 2px;
      }

      .cls-2 {
        fill: #3a3a3a;
      }

      .cls-3 {
        fill: #8e8e8e;
      }
    </style>
  </defs>
  <circle class="cls-3" cx="83.85" cy="84" r="75.06"/>
  <circle class="cls-2" cx="82.43" cy="84.99" r="26.43"/>
  <circle class="cls-1" cx="82.63" cy="85.99" r="5.52"/>
  <path d="M98.28,61.2c-.21,0-.43-.05-.62-.17-.6-.34-.8-1.11-.46-1.71l20.27-35.11c.35-.6,1.11-.81,1.71-.46,.6,.34,.8,1.11,.46,1.71l-20.27,35.11c-.23,.4-.65,.63-1.08,.63Z"/>
  <path d="M108.9,71.81c-.43,0-.85-.22-1.08-.63-.35-.6-.14-1.36,.46-1.71l35.11-20.27c.6-.35,1.36-.14,1.71,.46,.35,.6,.14,1.36-.46,1.71l-35.11,20.27c-.2,.11-.41,.17-.62,.17Z"/>
  <path d="M23.05,121.59c-.43,0-.85-.22-1.08-.63-.35-.6-.14-1.36,.46-1.71l35.11-20.27c.6-.35,1.36-.14,1.71,.46,.35,.6,.14,1.36-.46,1.71l-35.11,20.27c-.2,.11-.41,.17-.62,.17Z"/>
  <path d="M48.5,147.05c-.21,0-.43-.05-.62-.17-.6-.34-.8-1.11-.46-1.71l20.27-35.11c.34-.6,1.11-.81,1.71-.46,.6,.34,.8,1.11,.46,1.71l-20.27,35.11c-.23,.4-.65,.63-1.08,.63Z"/>
</svg>