<svg xmlns="http://www.w3.org/2000/svg" width="606" height="404" viewBox="0 0 606 404">
  <g id="Group_32" data-name="Group 32" transform="translate(1502.5 -2114)">
    <g id="Group_26" data-name="Group 26" transform="translate(-1874.19 1893.751)">
      <rect id="Rectangle_2" data-name="Rectangle 2" width="604" height="402" rx="3.351" transform="translate(372.69 221.249)" fill="#8d3ebb" stroke="#000" stroke-miterlimit="10" stroke-width="2"/>
      <g id="Group_21" data-name="Group 21" transform="translate(411.788 288.266)">
        <g id="Ellipse_6" data-name="Ellipse 6" transform="translate(0 239.398)" fill="#707070" stroke="#fff" stroke-width="4">
          <circle cx="39.008" cy="39.008" r="39.008" stroke="none"/>
          <circle cx="39.008" cy="39.008" r="37.008" fill="none"/>
        </g>
      </g>
      <path id="Path_22" data-name="Path 22" d="M23.084,19.5a6.073,6.073,0,1,1-6.073-6.073A6.074,6.074,0,0,1,23.084,19.5" transform="translate(909.211 277.98)" stroke="#cecece" stroke-width="3"/>
      <path id="Path_23" data-name="Path 23" d="M33.024,19.5a6.073,6.073,0,1,1-6.073-6.073A6.074,6.074,0,0,1,33.024,19.5" transform="translate(923.561 277.98)" stroke="#cecece" stroke-width="3"/>
      <path id="Path_25" data-name="Path 25" d="M137.152,25.57h-19.4a2.451,2.451,0,0,1-2.444-2.444V15.869a2.451,2.451,0,0,1,2.444-2.444h19.4a2.451,2.451,0,0,1,2.444,2.444v7.258a2.451,2.451,0,0,1-2.444,2.444" transform="translate(743.698 277.98)" fill="#5061ff" stroke="#cecece" stroke-width="3"/>
      <path id="Path_26" data-name="Path 26" d="M161.719,78.032H130.174a2.451,2.451,0,0,0-2.444,2.444v7.258a2.451,2.451,0,0,0,2.444,2.444h31.546a2.451,2.451,0,0,0,2.444-2.444V80.476a2.451,2.451,0,0,0-2.444-2.444" transform="translate(780.277 493.171)" fill="#46baf2" stroke="#fff" stroke-width="3"/>
      <path id="Path_28" data-name="Path 28" d="M161.719,70.577H130.174a2.451,2.451,0,0,0-2.444,2.444v7.258a2.451,2.451,0,0,0,2.444,2.444h31.546a2.451,2.451,0,0,0,2.444-2.444V73.021a2.451,2.451,0,0,0-2.444-2.444" transform="translate(780.277 478.044)" fill="#f51a1a" stroke="#fff" stroke-width="3"/>
      <g id="Group_31" data-name="Group 31" transform="translate(412.352 -114.708)">
        <path id="Path_29" data-name="Path 29" d="M154.5,65.328a12.145,12.145,0,1,1-12.145-12.145A12.145,12.145,0,0,1,154.5,65.328" transform="translate(296.291 635.783)" fill="#fff" stroke="#cecece" stroke-width="4"/>
        <path id="Path_30" data-name="Path 30" d="M154.5,50.418a12.145,12.145,0,1,1-12.145-12.145A12.145,12.145,0,0,1,154.5,50.418" transform="translate(296.291 611.229)" fill="#5487a3" stroke="#fff" stroke-width="4"/>
      </g>
      <path id="Path_169" data-name="Path 169" d="M8.279,114.005H2.085A2.086,2.086,0,0,1,0,111.92V2.085A2.086,2.086,0,0,1,2.085,0H8.279a2.086,2.086,0,0,1,2.085,2.085V111.92a2.086,2.086,0,0,1-2.085,2.085" transform="translate(965.007 237.411) rotate(90)" fill="#5487a3"/>
      <rect id="Rectangle_45" data-name="Rectangle 45" width="20.909" height="10.583" rx="1" transform="matrix(-0.017, 1, -1, -0.017, 882.095, 232.233)" fill="#fff" stroke="#000" stroke-miterlimit="10" stroke-width="1"/>
      <rect id="Rectangle_16" data-name="Rectangle 16" width="387.446" height="381.374" transform="translate(475.648 225.366)" fill="none"/>
      <g id="Path_178" data-name="Path 178" transform="translate(725.339 524.409)" fill="#707070">
        <path d="M 39.00771713256836 76.01543426513672 C 34.01082229614258 76.01543426513672 29.16447067260742 75.0372314453125 24.60325813293457 73.10800933837891 C 20.19664573669434 71.24416351318359 16.23868179321289 68.57549285888672 12.83930492401123 65.17613220214844 C 9.439940452575684 61.77675247192383 6.771270275115967 57.81878662109375 4.90742301940918 53.41217422485352 C 2.978199481964111 48.8509635925293 1.999999523162842 44.00461196899414 1.999999523162842 39.00771713256836 C 1.999999523162842 34.01082229614258 2.978199481964111 29.16447067260742 4.90742301940918 24.60325813293457 C 6.771270275115967 20.19664573669434 9.439940452575684 16.23868179321289 12.83930492401123 12.83930492401123 C 16.23868179321289 9.439940452575684 20.19664573669434 6.771270275115967 24.60325813293457 4.90742301940918 C 29.16447067260742 2.978199481964111 34.01082229614258 1.999999523162842 39.00771713256836 1.999999523162842 C 44.00461196899414 1.999999523162842 48.8509635925293 2.978199481964111 53.41217422485352 4.90742301940918 C 57.81878662109375 6.771270275115967 61.77675247192383 9.439940452575684 65.17613220214844 12.83930492401123 C 68.57549285888672 16.23868179321289 71.24416351318359 20.19664573669434 73.10800933837891 24.60325813293457 C 75.0372314453125 29.16447067260742 76.01543426513672 34.01082229614258 76.01543426513672 39.00771713256836 C 76.01543426513672 44.00461196899414 75.0372314453125 48.8509635925293 73.10800933837891 53.41217422485352 C 71.24416351318359 57.81878662109375 68.57549285888672 61.77675247192383 65.17613220214844 65.17613220214844 C 61.77675247192383 68.57549285888672 57.81878662109375 71.24416351318359 53.41217422485352 73.10800933837891 C 48.8509635925293 75.0372314453125 44.00461196899414 76.01543426513672 39.00771713256836 76.01543426513672 Z" stroke="none"/>
        <path d="M 39.00771713256836 4 C 34.27994537353516 4 29.69571685791016 4.925033569335938 25.38236999511719 6.749435424804688 C 21.21414566040039 8.512451171875 17.46986389160156 11.03718566894531 14.2535285949707 14.2535285949707 C 11.03718566894531 17.46986389160156 8.512451171875 21.21414566040039 6.749435424804688 25.38236999511719 C 4.925033569335938 29.69571685791016 4 34.27994537353516 4 39.00771713256836 C 4 43.73548889160156 4.925033569335938 48.31971740722656 6.749435424804688 52.63306427001953 C 8.512451171875 56.80129241943359 11.03718566894531 60.54557037353516 14.2535285949707 63.76190185546875 C 17.46986389160156 66.97824859619141 21.21414566040039 69.50298309326172 25.38236999511719 71.26599884033203 C 29.69571685791016 73.09040069580078 34.27994537353516 74.01543426513672 39.00771713256836 74.01543426513672 C 43.73548889160156 74.01543426513672 48.31971740722656 73.09040069580078 52.63306427001953 71.26599884033203 C 56.80129241943359 69.50298309326172 60.54557037353516 66.97824859619141 63.76190185546875 63.76190185546875 C 66.97824859619141 60.54557037353516 69.50298309326172 56.80129241943359 71.26599884033203 52.63306427001953 C 73.09040069580078 48.31971740722656 74.01543426513672 43.73548889160156 74.01543426513672 39.00771713256836 C 74.01543426513672 34.27994537353516 73.09040069580078 29.69571685791016 71.26599884033203 25.38236999511719 C 69.50298309326172 21.21414566040039 66.97824859619141 17.46986389160156 63.76190185546875 14.2535285949707 C 60.54557037353516 11.03718566894531 56.80129241943359 8.512451171875 52.63306427001953 6.749435424804688 C 48.31971740722656 4.925033569335938 43.73548889160156 4 39.00771713256836 4 M 39.00771713256836 0 C 60.55107879638672 0 78.01543426513672 17.46435546875 78.01543426513672 39.00771713256836 C 78.01543426513672 60.55107879638672 60.55107879638672 78.01543426513672 39.00771713256836 78.01543426513672 C 17.46435546875 78.01543426513672 0 60.55107879638672 0 39.00771713256836 C 0 17.46435546875 17.46435546875 0 39.00771713256836 0 Z" stroke="none" fill="#fff"/>
      </g>
      <g id="Group_30" data-name="Group 30" transform="translate(-6.614 -29.706)">
        <line id="Line_9" data-name="Line 9" y2="116.605" transform="translate(906.799 393.538)" fill="none" stroke="#fff" stroke-width="4"/>
        <line id="Line_10" data-name="Line 10" y2="116.605" transform="translate(921.152 393.766)" fill="none" stroke="#fff" stroke-width="4"/>
        <line id="Line_11" data-name="Line 11" y2="116.605" transform="translate(935.505 393.766)" fill="none" stroke="#fff" stroke-width="4"/>
        <path id="Path_24" data-name="Path 24" d="M145.216,21.765H131.892a1.683,1.683,0,0,1-1.678-1.678V15.1a1.683,1.683,0,0,1,1.678-1.678h13.324a1.683,1.683,0,0,1,1.678,1.678v4.984a1.683,1.683,0,0,1-1.678,1.678" transform="translate(768.244 481.232)" fill="#75d986" stroke="#fff" stroke-width="4"/>
        <path id="Path_170" data-name="Path 170" d="M145.216,21.765H131.892a1.683,1.683,0,0,1-1.678-1.678V15.1a1.683,1.683,0,0,1,1.678-1.678h13.324a1.683,1.683,0,0,1,1.678,1.678v4.984a1.683,1.683,0,0,1-1.678,1.678" transform="translate(782.597 421.274)" fill="#f6dc37" stroke="#fff" stroke-width="4"/>
        <path id="Path_171" data-name="Path 171" d="M145.216,21.765H131.892a1.683,1.683,0,0,1-1.678-1.678V15.1a1.683,1.683,0,0,1,1.678-1.678h13.324a1.683,1.683,0,0,1,1.678,1.678v4.984a1.683,1.683,0,0,1-1.678,1.678" transform="translate(796.951 456.332)" fill="#f2973b" stroke="#fff" stroke-width="4"/>
      </g>
      <g id="Group_29" data-name="Group 29" transform="translate(-75 13.022)">
        <line id="Line_12" data-name="Line 12" y2="88.112" transform="translate(626.136 508.648)" fill="none" stroke="#fff" stroke-width="5"/>
        <line id="Line_13" data-name="Line 13" y2="88.112" transform="translate(636.982 508.821)" fill="none" stroke="#fff" stroke-width="5"/>
        <line id="Line_14" data-name="Line 14" y2="88.112" transform="translate(647.827 508.821)" fill="none" stroke="#fff" stroke-width="5"/>
        <path id="Path_172" data-name="Path 172" d="M141.55,19.727H131.482a1.272,1.272,0,0,1-1.268-1.268V14.693a1.272,1.272,0,0,1,1.268-1.268H141.55a1.272,1.272,0,0,1,1.268,1.268v3.766a1.272,1.272,0,0,1-1.268,1.268" transform="translate(489.62 571.633)" fill="#5487a3"/>
        <path id="Path_173" data-name="Path 173" d="M141.55,19.727H131.482a1.272,1.272,0,0,1-1.268-1.268V14.693a1.272,1.272,0,0,1,1.268-1.268H141.55a1.272,1.272,0,0,1,1.268,1.268v3.766a1.272,1.272,0,0,1-1.268,1.268" transform="translate(500.465 526.326)" fill="#5487a3"/>
        <path id="Path_174" data-name="Path 174" d="M141.55,19.727H131.482a1.272,1.272,0,0,1-1.268-1.268V14.693a1.272,1.272,0,0,1,1.268-1.268H141.55a1.272,1.272,0,0,1,1.268,1.268v3.766a1.272,1.272,0,0,1-1.268,1.268" transform="translate(511.311 552.817)" fill="#5487a3"/>
      </g>
      <g id="Group_22" data-name="Group 22" transform="translate(587.028 522.53)">
        <line id="Line_15" data-name="Line 15" y2="88.112" transform="translate(6.302)" fill="none" stroke="#fff" stroke-width="5"/>
        <line id="Line_16" data-name="Line 16" y2="88.112" transform="translate(17.148 0.172)" fill="none" stroke="#fff" stroke-width="5"/>
        <line id="Line_17" data-name="Line 17" y2="88.112" transform="translate(27.994 0.172)" fill="none" stroke="#fff" stroke-width="5"/>
        <path id="Path_175" data-name="Path 175" d="M141.55,19.727H131.482a1.272,1.272,0,0,1-1.268-1.268V14.693a1.272,1.272,0,0,1,1.268-1.268H141.55a1.272,1.272,0,0,1,1.268,1.268v3.766a1.272,1.272,0,0,1-1.268,1.268" transform="translate(-130.214 62.984)" fill="#5487a3"/>
        <path id="Path_176" data-name="Path 176" d="M141.55,19.727H131.482a1.272,1.272,0,0,1-1.268-1.268V14.693a1.272,1.272,0,0,1,1.268-1.268H141.55a1.272,1.272,0,0,1,1.268,1.268v3.766a1.272,1.272,0,0,1-1.268,1.268" transform="translate(-119.368 17.678)" fill="#5487a3"/>
        <path id="Path_177" data-name="Path 177" d="M141.55,19.727H131.482a1.272,1.272,0,0,1-1.268-1.268V14.693a1.272,1.272,0,0,1,1.268-1.268H141.55a1.272,1.272,0,0,1,1.268,1.268v3.766a1.272,1.272,0,0,1-1.268,1.268" transform="translate(-108.522 34.99)" fill="#5487a3"/>
      </g>
      <g id="Group_23" data-name="Group 23" transform="translate(625.868 521.843)">
        <line id="Line_15-2" data-name="Line 15" y2="88.112" transform="translate(6.302)" fill="none" stroke="#fff" stroke-width="5"/>
        <line id="Line_16-2" data-name="Line 16" y2="88.112" transform="translate(17.148 0.172)" fill="none" stroke="#fff" stroke-width="5"/>
        <line id="Line_17-2" data-name="Line 17" y2="88.112" transform="translate(27.994 0.172)" fill="none" stroke="#fff" stroke-width="5"/>
        <path id="Path_175-2" data-name="Path 175" d="M141.55,19.727H131.482a1.272,1.272,0,0,1-1.268-1.268V14.693a1.272,1.272,0,0,1,1.268-1.268H141.55a1.272,1.272,0,0,1,1.268,1.268v3.766a1.272,1.272,0,0,1-1.268,1.268" transform="translate(-130.214 62.984)" fill="#5487a3"/>
        <path id="Path_176-2" data-name="Path 176" d="M141.55,19.727H131.482a1.272,1.272,0,0,1-1.268-1.268V14.693a1.272,1.272,0,0,1,1.268-1.268H141.55a1.272,1.272,0,0,1,1.268,1.268v3.766a1.272,1.272,0,0,1-1.268,1.268" transform="translate(-119.368 17.678)" fill="#5487a3"/>
        <path id="Path_177-2" data-name="Path 177" d="M141.55,19.727H131.482a1.272,1.272,0,0,1-1.268-1.268V14.693a1.272,1.272,0,0,1,1.268-1.268H141.55a1.272,1.272,0,0,1,1.268,1.268v3.766a1.272,1.272,0,0,1-1.268,1.268" transform="translate(-108.522 44.169)" fill="#5487a3"/>
      </g>
    </g>
    <g id="Group_28" data-name="Group 28" transform="translate(-638.5)">
      <path id="Path_181" data-name="Path 181" d="M165.52,178.7H19.176a4.354,4.354,0,0,1-4.509-4.183V38.729a4.35,4.35,0,0,1,4.509-4.183H165.52a4.355,4.355,0,0,1,4.509,4.183V174.518a4.359,4.359,0,0,1-4.509,4.183" transform="translate(-877.667 2080.454)" fill="#fff" stroke="#707070" stroke-width="1"/>
      <path id="Path_182" data-name="Path 182" d="M165.52,178.7H19.176a4.354,4.354,0,0,1-4.509-4.183V38.729a4.35,4.35,0,0,1,4.509-4.183H165.52a4.355,4.355,0,0,1,4.509,4.183V174.518a4.359,4.359,0,0,1-4.509,4.183" transform="translate(-722.305 2080.454)" fill="#fff" stroke="#707070" stroke-width="1"/>
      <path id="Path_183" data-name="Path 183" d="M165.52,178.7H19.176a4.354,4.354,0,0,1-4.509-4.183V38.729a4.35,4.35,0,0,1,4.509-4.183H165.52a4.355,4.355,0,0,1,4.509,4.183V174.518a4.359,4.359,0,0,1-4.509,4.183" transform="translate(-566.944 2080.454)" fill="#fff" stroke="#707070" stroke-width="1"/>
      <path id="Path_184" data-name="Path 184" d="M165.52,178.7H19.176a4.354,4.354,0,0,1-4.509-4.183V38.729a4.35,4.35,0,0,1,4.509-4.183H165.52a4.355,4.355,0,0,1,4.509,4.183V174.518a4.359,4.359,0,0,1-4.509,4.183" transform="translate(-566.944 2224.61)" fill="#fff" stroke="#707070" stroke-width="1"/>
      <path id="Path_185" data-name="Path 185" d="M165.52,178.7H19.176a4.354,4.354,0,0,1-4.509-4.183V38.729a4.35,4.35,0,0,1,4.509-4.183H165.52a4.355,4.355,0,0,1,4.509,4.183V174.518a4.359,4.359,0,0,1-4.509,4.183" transform="translate(-722.305 2224.61)" fill="#fff" stroke="#707070" stroke-width="1"/>
      <path id="Path_186" data-name="Path 186" d="M165.52,178.7H19.176a4.354,4.354,0,0,1-4.509-4.183V38.729a4.35,4.35,0,0,1,4.509-4.183H165.52a4.355,4.355,0,0,1,4.509,4.183V174.518a4.359,4.359,0,0,1-4.509,4.183" transform="translate(-877.667 2224.61)" fill="#fff" stroke="#707070" stroke-width="1"/>
    </g>
  </g>
</svg>
