<?xml version="1.0" encoding="UTF-8"?>
<svg id="Layer_11" data-name="Layer 11" xmlns="http://www.w3.org/2000/svg" viewBox="0 0 167.38 169.4">
  <defs>
    <style>
      .cls-1 {
        fill: #dfe5df;
      }

      .cls-1, .cls-2 {
        stroke: #000;
        stroke-miterlimit: 10;
      }

      .cls-2 {
        fill: #8db78a;
        stroke-width: 2px;
      }
    </style>
  </defs>
  <circle class="cls-2" cx="87.54" cy="85.3" r="62.78"/>
  <circle class="cls-1" cx="87.54" cy="85.3" r="54.79"/>
  <rect x="4.44" y="75.55" width="77.61" height="4.57" rx="1" ry="1" transform="translate(68.67 163.16) rotate(-167.54)"/>
  <rect x="85.52" y="85.65" width="6.85" height="4.57" rx="1" ry="1" transform="translate(156.8 192.98) rotate(-167.54)"/>
  <rect x="13.1" y="59.11" width="77.61" height="4.57" rx="1" ry="1" transform="translate(28.07 138.18) rotate(-122.54)"/>
  <rect x="73.65" y="98.56" width="6.85" height="4.57" rx="1" ry="1" transform="translate(33.51 220.07) rotate(-122.54)"/>
  <path d="M87.42,23.38c-2.66,0-4.82-2.17-4.82-4.85s2.16-4.85,4.82-4.85,4.82,2.17,4.82,4.85-2.16,4.85-4.82,4.85c2.72,0,5.39,.19,8.01,.53,1.02-1.54,1.62-3.39,1.62-5.38,0-5.36-4.31-9.7-9.64-9.7s-9.64,4.34-9.64,9.7c0,1.99,.6,3.84,1.62,5.38,2.63-.34,5.3-.53,8.01-.53Z"/>
  <path d="M145.24,42.78c-3.61,0-6.72,2.02-8.37,4.98,1.28,1.66,2.48,3.38,3.59,5.16-.01-.14-.04-.28-.04-.43,0-2.68,2.16-4.85,4.82-4.85s4.82,2.17,4.82,4.85-2.16,4.85-4.82,4.85c-.99,0-1.91-.3-2.67-.82,.98,1.84,1.88,3.73,2.68,5.67,5.32,0,9.63-4.35,9.63-9.7s-4.31-9.7-9.64-9.7Z"/>
  <path d="M145.25,110.7c-.8,1.94-1.7,3.83-2.68,5.67,.76-.51,1.68-.82,2.67-.82,2.66,0,4.82,2.17,4.82,4.85s-2.16,4.85-4.82,4.85-4.82-2.17-4.82-4.85c0-.15,.03-.29,.04-.43-1.11,1.78-2.31,3.5-3.59,5.16,1.65,2.96,4.76,4.98,8.37,4.98,5.32,0,9.64-4.34,9.64-9.7s-4.31-9.7-9.63-9.7Z"/>
  <path d="M32.26,56.52c-.76,.51-1.68,.82-2.67,.82-2.66,0-4.82-2.17-4.82-4.85s2.16-4.85,4.82-4.85,4.82,2.17,4.82,4.85c0,.15-.03,.29-.04,.43,1.11-1.78,2.31-3.5,3.59-5.16-1.65-2.96-4.76-4.98-8.37-4.98-5.32,0-9.64,4.34-9.64,9.7s4.31,9.7,9.63,9.7c.8-1.94,1.7-3.83,2.68-5.67Z"/>
  <path d="M87.42,148.56c2.66,0,4.82,1.97,4.82,4.4s-2.16,4.4-4.82,4.4-4.82-1.97-4.82-4.4,2.16-4.4,4.82-4.4c-2.72,0-5.39-.18-8.01-.48-1.02,1.4-1.62,3.08-1.62,4.89,0,4.87,4.31,8.81,9.64,8.81s9.64-3.94,9.64-8.81c0-1.81-.6-3.49-1.62-4.89-2.63,.31-5.3,.48-8.01,.48Z"/>
  <path d="M34.37,119.96c.01,.14,.04,.28,.04,.43,0,2.68-2.16,4.85-4.82,4.85s-4.82-2.17-4.82-4.85,2.16-4.85,4.82-4.85c.99,0,1.91,.3,2.67,.82-.98-1.84-1.88-3.73-2.68-5.67-5.32,0-9.63,4.35-9.63,9.7s4.31,9.7,9.64,9.7c3.61,0,6.72-2.02,8.37-4.98-1.28-1.66-2.48-3.38-3.59-5.16Z"/>
  <ellipse cx="28.44" cy="120.68" rx="5.97" ry="6.85"/>
  <circle cx="88.68" cy="154.92" r="6.85"/>
  <ellipse cx="145.75" cy="120.68" rx="6.85" ry="5.19" transform="translate(-36.13 172.9) rotate(-55.65)"/>
  <ellipse cx="146.89" cy="51.68" rx="5.71" ry="7.37" transform="translate(-7.83 69.28) rotate(-25.87)"/>
  <ellipse cx="87.54" cy="16.82" rx="6.85" ry="5.71"/>
  <ellipse cx="28.19" cy="52.2" rx="6.85" ry="5.71" transform="translate(-31.11 50.51) rotate(-60)"/>
</svg>