<?xml version="1.0" encoding="UTF-8"?>
<svg id="Layer_13" data-name="Layer 13" xmlns="http://www.w3.org/2000/svg" viewBox="0 0 167.38 169.4">
  <defs>
    <style>
      .cls-1 {
        fill: #bc5e2f;
      }

      .cls-1, .cls-2, .cls-3 {
        stroke: #000;
        stroke-miterlimit: 10;
      }

      .cls-4 {
        fill: #383634;
      }

      .cls-2 {
        fill: #b2a896;
      }

      .cls-3 {
        fill: none;
        stroke-width: .5px;
      }
    </style>
  </defs>
  <path class="cls-1" d="M83.35,18.05c-10.6,.24-15.89,.36-20.06,1.67-2.75,.87-7.48,2.36-11.7,6.69-1.88,1.93-6.78,7.62-6.69,15.04,.02,1.64,.26,1.91,3.34,11.7,2.16,6.86,3.24,10.32,3.34,11.7,.29,3.81-.91,5.97-6.69,16.71-8.63,16.06-11.17,20.96-13.37,28.41-.69,2.34-1.22,4.12-1.67,6.69-.91,5.18-3.1,17.59,3.34,28.41,7.08,11.89,20.62,15.21,26.74,16.71,3.78,.93,6.97,1.17,13.37,1.67,7.05,.55,14.7,1.14,23.4,0,6.78-.89,18.01-2.46,28.41-10.03,5-3.64,7.37-6.89,8.36-8.36,3.74-5.57,4.63-10.92,5.01-13.37,1.26-8.1-.62-14.71-1.67-18.39-.52-1.82-1.08-3.36-1.67-5.01-1.91-5.34-3.82-9.25-5.01-11.7-2.59-5.29-3.81-6.53-11.7-20.06-1.81-3.11-3.02-5.22-3.34-8.36-.31-2.93,.35-5.33,1.67-10.03,1.42-5.06,2.09-5.42,3.34-10.03,1.33-4.87,1.99-7.3,1.67-10.03-.68-5.81-4.66-9.72-6.69-11.7-4.47-4.38-9.35-5.96-11.7-6.69-4.26-1.32-8.01-1.47-13.37-1.67-.85-.03-2.68-.09-6.69,0Z"/>
  <circle class="cls-2" cx="82.52" cy="74.04" r="20.89"/>
  <path d="M91.02,3.89h-16.71l-1.67,33.43c0,1.84,1.5,3.34,3.34,3.34h13.37c1.84,0,3.34-1.5,3.34-3.34l-1.67-33.43Z"/>
  <path d="M65.8,117.5h33.43v4.69c0,1.1-.9,2-2,2h-29.43c-1.1,0-2-.9-2-2v-4.69h0Z"/>
  <circle class="cls-4" cx="82.52" cy="74.04" r="16.71"/>
  <line class="cls-3" x1="74.16" y1="38.94" x2="74.16" y2="120.84"/>
  <line class="cls-3" x1="90.87" y1="38.94" x2="90.87" y2="119.17"/>
  <line class="cls-3" x1="82.52" y1="38.94" x2="82.52" y2="120.84"/>
</svg>