<?xml version="1.0" encoding="UTF-8"?>
<svg id="Layer_10" data-name="Layer 10" xmlns="http://www.w3.org/2000/svg" viewBox="0 0 167.38 169.4">
  <defs>
    <style>
      .cls-1 {
        fill: #889fa3;
      }

      .cls-1, .cls-2 {
        stroke: #000;
        stroke-miterlimit: 10;
        stroke-width: 2px;
      }

      .cls-2 {
        fill: #5487a3;
      }
    </style>
  </defs>
  <rect class="cls-1" x="38.53" y="9.53" width="90.62" height="97.25" rx="4.05" ry="4.05"/>
  <rect class="cls-2" x="34.11" y="106.79" width="99.46" height="13.26"/>
  <path d="M126.01,123.11v13.26H42.01v-13.26H126.01m4.42-4.42H37.59v22.1h92.83v-22.1h0Z"/>
  <polygon points="112.74 149.63 55.28 149.63 37.59 140.79 130.43 140.79 112.74 149.63"/>
  <rect x="55.28" y="149.63" width="57.47" height="8.84"/>
  <circle cx="56.22" cy="22.8" r="2.21"/>
  <circle cx="69.48" cy="22.8" r="2.21"/>
  <circle cx="82.74" cy="22.8" r="2.21"/>
  <circle cx="96" cy="22.8" r="2.21"/>
  <circle cx="109.26" cy="22.8" r="2.21"/>
  <circle cx="62.85" cy="31.64" r="2.21"/>
  <circle cx="49.59" cy="31.64" r="2.21"/>
  <circle cx="76.11" cy="31.64" r="2.21"/>
  <circle cx="89.37" cy="31.64" r="2.21"/>
  <circle cx="102.63" cy="31.64" r="2.21"/>
  <circle cx="115.89" cy="31.64" r="2.21"/>
  <circle cx="56.22" cy="40.48" r="2.21"/>
  <circle cx="69.48" cy="40.48" r="2.21"/>
  <circle cx="82.74" cy="40.48" r="2.21"/>
  <circle cx="96" cy="40.48" r="2.21"/>
  <circle cx="109.26" cy="40.48" r="2.21"/>
  <circle cx="62.85" cy="49.32" r="2.21"/>
  <circle cx="49.59" cy="49.32" r="2.21"/>
  <circle cx="76.11" cy="49.32" r="2.21"/>
  <circle cx="89.37" cy="49.32" r="2.21"/>
  <circle cx="102.63" cy="49.32" r="2.21"/>
  <circle cx="115.89" cy="49.32" r="2.21"/>
  <circle cx="56.22" cy="58.16" r="2.21"/>
  <circle cx="69.48" cy="58.16" r="2.21"/>
  <circle cx="82.74" cy="58.16" r="2.21"/>
  <circle cx="96" cy="58.16" r="2.21"/>
  <circle cx="109.26" cy="58.16" r="2.21"/>
  <circle cx="62.85" cy="67" r="2.21"/>
  <circle cx="49.59" cy="67" r="2.21"/>
  <circle cx="76.11" cy="67" r="2.21"/>
  <circle cx="89.37" cy="67" r="2.21"/>
  <circle cx="102.63" cy="67" r="2.21"/>
  <circle cx="115.89" cy="67" r="2.21"/>
  <circle cx="56.22" cy="75.84" r="2.21"/>
  <circle cx="69.48" cy="75.84" r="2.21"/>
  <circle cx="82.74" cy="75.84" r="2.21"/>
  <circle cx="96" cy="75.84" r="2.21"/>
  <circle cx="109.26" cy="75.84" r="2.21"/>
  <circle cx="56.22" cy="93.53" r="2.21"/>
  <circle cx="69.48" cy="93.53" r="2.21"/>
  <circle cx="82.74" cy="93.53" r="2.21"/>
  <circle cx="96" cy="93.53" r="2.21"/>
  <circle cx="109.26" cy="93.53" r="2.21"/>
  <circle cx="62.85" cy="84.68" r="2.21"/>
  <circle cx="49.59" cy="84.68" r="2.21"/>
  <circle cx="76.11" cy="84.68" r="2.21"/>
  <circle cx="89.37" cy="84.68" r="2.21"/>
  <circle cx="102.63" cy="84.68" r="2.21"/>
  <circle cx="115.89" cy="84.68" r="2.21"/>
  <rect class="cls-2" x="40.74" y="120.05" width="86.2" height="17.68"/>
  <rect x="73.9" y="126.68" width="17.68" height="4.42" rx="1" ry="1"/>
</svg>